<svg width="146" height="38" xmlns="http://www.w3.org/2000/svg">
 <!-- Generator: Sketch 40 (33762) - http://www.bohemiancoding.com/sketch -->
 <title>Shape Copy</title>
 <desc>Created with Sketch.</desc>
 <defs>
  <filter height="200%" width="200%" y="-50%" x="-50%" id="svg_1_blur">
   <feGaussianBlur stdDeviation="0" in="SourceGraphic"/>
  </filter>
 </defs>
 <g>
  <title>background</title>
  <rect fill="none" id="canvas_background" height="402" width="582" y="-1" x="-1"/>
 </g>
 <g>
  <title>Layer 1</title>
  <text stroke-width="0.5" filter="url(#svg_1_blur)" stroke="#409eff" xml:space="preserve" text-anchor="start" font-family="Helvetica, Arial, sans-serif" font-size="24" id="svg_1" y="27.5" x="2" fill="#409eff">AlbatroUI</text>
  <!-- Generator: Sketch 40 (33762) - http://www.bohemiancoding.com/sketch -->
  <desc transform="matrix(0.007526948436287206,0,0,0.007526948436287206,0,0) ">Created with Sketch.</desc>

  <g id="svg_11">
   <g transform="matrix(0.007526948436287206,0,0,0.007526948436287206,0,0) " fill-rule="evenodd" fill="none" id="svg_7">
    <g fill="#409EFF" id="svg_8">
     <path id="svg_9" d="m9767.992862,2531.420994c0,0 0.2848,-0.0073 0.8255,0c0.5407,0.00729 0.68791,0.41305 0.68791,0.41305c0,0 1.08498,1.99571 1.37583,2.47828c0.25893,0.42957 -0.05146,0.42173 -0.12286,0.4147c0.00068,-0.00096 -0.01473,-0.00165 -0.01473,-0.00165c0,0 0.00592,0.00083 0.01473,0.00165c-0.00317,0.00441 -0.30709,0.01446 -3.45429,-0.00165c-4.38889,-0.59561 -4.54023,-4.54353 -4.54023,-4.54353l0,-7.02181l-2.47649,0l0,-2.61597c0,-0.3566 0.41275,-0.41305 0.41275,-0.41305l2.06374,0l0,-2.61597c0,-0.42668 0.41275,-0.55073 0.41275,-0.55073c0,0 1.4526,-0.41525 2.29777,-0.65702c0.34684,-0.09913 0.45388,0.10629 0.45388,0.10629c0,0 0.13758,-0.07297 0.13758,0.24232l0,3.61279l3.57715,0c0.34823,0 0.41275,0.41305 0.41275,0.41305l0,2.61597l-3.9899,0l0,6.05804c0,1.76082 1.92616,2.06524 1.92616,2.06524l0,0zm-10.59386,3.02902l-2.20133,0c-0.43187,0 -0.41275,-0.55073 -0.41275,-0.55073l0,-10.18852c0,-0.61888 -0.82549,-0.8261 -0.82549,-0.8261l-4.54023,0c-0.67732,0 -0.68791,0.8261 -0.68791,0.8261l0,10.3262c0,0.40492 -0.41275,0.41305 -0.41275,0.41305l-2.20132,0c-0.48402,0 -0.41275,-0.55073 -0.41275,-0.55073l0,-12.80449c0,-1.02849 1.23824,-1.23915 1.23824,-1.23915l9.63079,0c0.9617,0 1.23824,1.23915 1.23824,1.23915l0,12.6668c0,0.72022 -0.41274,0.68842 -0.41274,0.68842l0,0zm-15.68443,-5.78268l-8.53012,0l0,2.06524c0,0.74418 0.96308,0.96378 0.96308,0.96378l6.87913,0c0.48952,0 0.82549,0.41305 0.82549,0.41305c0,0 0.60028,1.24892 0.8255,1.78988c0.22522,0.54095 -0.41275,0.55073 -0.41275,0.55073l-10.3187,0c-1.24264,0 -1.51341,-1.51451 -1.51341,-1.51451l0,-11.70303c0,-0.67299 0.96308,-0.96378 0.96308,-0.96378l10.3187,0c1.03696,0 1.23825,1.23915 1.23825,1.23915l0,5.92035c0,0.99889 -1.23825,1.23914 -1.23825,1.23914l0,0zm-1.51341,-4.95657c0,0 -0.08667,-0.68841 -0.68791,-0.68841l-5.64089,0c0,0 -0.68791,0.18463 -0.68791,0.68841l0,1.51451c0,0 0.01981,0.68841 0.68791,0.68841l5.64089,0c0,0 0.68791,-0.17004 0.68791,-0.82609l0,-1.37683l0,0zm-12.93277,10.73925l-2.20132,0c-0.29044,0 -0.41275,-0.41305 -0.41275,-0.41305l0,-10.3262c0,-0.64036 -0.82549,-0.8261 -0.82549,-0.8261l-2.06374,0c-0.57579,0 -0.68792,0.8261 -0.68792,0.8261l0,10.3262c0,0.34255 -0.41275,0.41305 -0.41275,0.41305l-2.20132,0c-0.30612,0 -0.41275,-0.41305 -0.41275,-0.41305l0,-10.3262c0,-0.65468 -0.82549,-0.8261 -0.82549,-0.8261l-2.06374,0c-0.62972,0 -0.68792,0.8261 -0.68792,0.8261l0,10.3262c0,0.44196 -0.41274,0.41305 -0.41274,0.41305l-2.20133,0c-0.41233,0 -0.41274,-0.41305 -0.41274,-0.41305l0,-13.07985c0,-0.75767 1.10066,-1.10147 1.10066,-1.10147l13.75826,0c1.10438,0 1.37583,1.37683 1.37583,1.37683l0,12.80449c0,0.47555 -0.41275,0.41305 -0.41275,0.41305l0,0zm-19.94948,-5.78268l-8.53013,0l0,2.06524c0,0.74418 0.96308,0.96378 0.96308,0.96378l6.87913,0c0.48952,0 0.8255,0.41305 0.8255,0.41305c0,0 0.60013,1.24892 0.82549,1.78988c0.22523,0.54095 -0.41274,0.55073 -0.41274,0.55073l-10.3187,0c-1.24265,0 -1.51341,-1.51451 -1.51341,-1.51451l0,-11.70303c0,-0.67299 0.96308,-0.96378 0.96308,-0.96378l10.3187,0c1.03696,0 1.23824,1.23915 1.23824,1.23915l0,5.92035c0,0.99889 -1.23824,1.23914 -1.23824,1.23914l0,0zm-1.51341,-4.95657c0,0 -0.08668,-0.68841 -0.68792,-0.68841l-5.64089,0c0,0 -0.68791,0.18463 -0.68791,0.68841l0,1.51451c0,0 0.01981,0.68841 0.68791,0.68841l5.64089,0c0,0 0.68792,-0.17004 0.68792,-0.82609l0,-1.37683l0,0zm-11.83211,10.73925l-5.22814,0c0,0 -3.8259,-0.18064 -4.12748,-3.9928c-0.01211,-3.91501 0,-16.10887 0,-16.10887l2.47648,0c0,0 0.8255,-0.01501 0.8255,0.82609l0,14.45668c0,0 0.28769,1.19591 1.92616,1.6522c1.85131,-0.00937 2.20132,0 2.20132,0c0,0 0.71749,-0.22994 1.23824,0.68841c0.52075,0.91834 1.10067,1.92756 1.10067,1.92756c0,0 0.08282,0.55073 -0.41275,0.55073l0,0zm-26.55346,-0.8261l0,-18.17411c0,-0.80586 0.68792,-0.96378 0.68792,-0.96378l12.93277,0c0.72327,0 0.41275,0.8261 0.41275,0.8261c0,0 -0.40312,1.11715 -0.68792,1.65219c-0.2848,0.53503 -0.82549,0.55073 -0.82549,0.55073l-8.39255,0c-0.78147,0 -0.82549,0.68841 -0.82549,0.68841l0,4.54353l9.4932,0c0.55694,0 0.27517,0.68841 0.27517,0.68841c0,0 -0.71103,1.51672 -0.96308,1.92756c-0.25205,0.41085 -0.8255,0.41305 -0.8255,0.41305l-7.97979,0l0,4.81889c0,0.65675 0.68791,0.8261 0.68791,0.8261l8.80529,0c0.63852,0 0.8255,0.41305 0.8255,0.41305c0,0 0.872,1.36154 1.23824,1.92755c0.36638,0.56602 -0.13758,0.68842 -0.13758,0.68842l-13.89585,0c-0.57386,0 -0.8255,-0.8261 -0.8255,-0.8261zm-8.14601,-1.14318c-0.00949,1.57702 -0.82866,1.9288 -0.82866,1.9288c0,0 -14.13579,8.16816 -15.05484,8.67993c-0.91066,0.39088 -1.51933,0 -1.51933,0c0,0 -14.7911,-8.57832 -15.33097,-8.95544c-0.54002,-0.37711 -0.55254,-0.96446 -0.55254,-0.96446c0,0 0.01486,-16.98646 0,-17.77304c-0.01485,-0.78672 0.9668,-1.37779 0.9668,-1.37779l14.77858,-8.54211c0.90983,-0.48024 1.79559,0 1.79559,0c0,0 13.05549,7.58865 14.50231,8.40429c1.41807,0.67423 1.24306,2.06661 1.24306,2.06661c0,0 0.00881,15.06758 0,16.53321l0,0zm-5.90049,-17.04842c-3.02599,-1.74168 -10.15443,-5.87202 -10.15443,-5.87202c0,0 -0.69548,-0.37588 -1.40981,0l-11.60303,6.68504c0,0 -0.77074,0.46275 -0.75904,1.07833c0.01169,0.61558 0,13.90939 0,13.90939c0,0 0.00977,0.45972 0.4338,0.75478c0.42389,0.29505 12.03669,7.0086 12.03669,7.0086c0,0 0.47796,0.30593 1.19284,0c0.72162,-0.40052 11.82,-6.79299 11.82,-6.79299c0,0 0.6432,-0.27537 0.65063,-1.50955c0.00207,-0.35591 0.00289,-1.73742 0.00303,-3.47319l-13.06664,7.91772l0,-3.02902c0,-1.2441 0.96308,-2.06524 0.96308,-2.06524l11.55763,-6.9644c0.43614,-0.45545 0.52612,-1.18504 0.54469,-1.46095c-0.00041,-1.26517 -0.00096,-2.37035 -0.00138,-3.07046l-13.06402,7.91606l0,-3.1667c0,-1.2441 0.8255,-1.78987 0.8255,-1.78987l10.03046,-6.07553z"/>
    </g>
   </g>
  </g>
 </g>
</svg>